<svg width="736" height="648" fill="none" xmlns="http://www.w3.org/2000/svg"><path fill="#F5F6FA" d="M0 0h224v200H0zM0 216h175v24H0zM0 244h119v24H0zM0 272h146v24H0zM0 352h224v200H0zM0 568h175v24H0zM0 596h119v24H0zM0 624h146v24H0zM256 0h224v200H256zM256 216h175v24H256zM256 244h119v24H256zM256 272h146v24H256zM256 352h224v200H256zM256 568h175v24H256zM256 596h119v24H256zM256 624h146v24H256zM512 0h224v200H512zM512 216h175v24H512zM512 244h119v24H512zM512 272h146v24H512zM512 352h224v200H512zM512 568h175v24H512zM512 596h119v24H512zM512 624h146v24H512z"/></svg>