<svg width="512" height="512" fill="none" xmlns="http://www.w3.org/2000/svg"><g opacity=".5"><path d="M427.884 232.017c0-94.924-76.953-171.877-171.877-171.877-94.925 0-171.878 76.953-171.878 171.877 0 61.066 31.938 114.528 79.943 144.983v10.906h184.055V376.89c47.896-30.486 79.757-83.885 79.757-144.873z" fill="#E0E4EC"/><path d="M275.75 179.715c0 17.667-16.113 31.977-35.974 31.977-19.869 0-35.974-14.31-35.974-31.977s16.105-31.978 35.974-31.978c19.861 0 35.974 14.31 35.974 31.978zM353.608 136.659c-4.684 4.685-16.137.82-25.583-8.634-9.454-9.446-13.318-20.907-8.643-25.591 4.685-4.676 16.145-.819 25.6 8.635 9.447 9.446 13.303 20.906 8.626 25.59zM350.135 305.559c-3.864-3.857-2.607-11.383 2.795-16.785 5.41-5.418 12.928-6.667 16.793-2.811 3.864 3.872 2.615 11.383-2.787 16.816-5.418 5.387-12.937 6.636-16.801 2.78zM155.836 247.666c0 6.628-5.363 11.999-11.991 11.999-6.621 0-11.992-5.371-11.992-11.999 0-6.62 5.371-11.991 11.992-11.991 6.628 0 11.991 5.371 11.991 11.991zM243.773 339.597c0 4.419-5.364 8.01-11.992 8.01-6.621 0-11.992-3.591-11.992-8.01 0-4.403 5.371-7.994 11.992-7.994 6.629 0 11.992 3.59 11.992 7.994z" fill="#F6BB42"/><path d="M275.75 179.715c0 17.667-16.113 31.977-35.974 31.977-19.869 0-35.974-14.31-35.974-31.977s16.105-31.978 35.974-31.978c19.861 0 35.974 14.31 35.974 31.978zM353.608 136.659c-4.684 4.685-16.137.82-25.583-8.634-9.454-9.446-13.318-20.907-8.643-25.591 4.685-4.676 16.145-.819 25.6 8.635 9.447 9.446 13.303 20.906 8.626 25.59zM350.135 305.559c-3.864-3.857-2.607-11.383 2.795-16.785 5.41-5.418 12.928-6.667 16.793-2.811 3.864 3.872 2.615 11.383-2.787 16.816-5.418 5.387-12.937 6.636-16.801 2.78zM155.836 247.666c0 6.628-5.363 11.999-11.991 11.999-6.621 0-11.992-5.371-11.992-11.999 0-6.62 5.371-11.991 11.992-11.991 6.628 0 11.991 5.371 11.991 11.991zM243.773 339.597c0 4.419-5.364 8.01-11.992 8.01-6.621 0-11.992-3.591-11.992-8.01 0-4.403 5.371-7.994 11.992-7.994 6.629 0 11.992 3.59 11.992 7.994zM347.941 467.849l-23.983 23.983H188.047l-23.975-23.983v-79.943h183.869v79.943z" fill="#F5F6FA"/><path d="M180.061 387.906h-15.989v79.943l23.975 23.983h15.989l-23.975-23.983v-79.943z" fill="#FEFEFF"/><path d="M331.944 387.906h15.99v79.943l-23.976 23.983H307.97l23.974-23.983v-79.943z" fill="#E0E4EC"/><path d="M108.112 232.017c0-90.876 70.574-165.089 159.886-171.272-3.981-.273-7.947-.605-11.991-.605-94.925 0-171.878 76.953-171.878 171.877 0 61.066 31.938 114.528 79.943 144.983 0 0-55.96-47.053-55.96-144.983z" fill="#fff"/><path d="M404.689 232.017c0-90.876-70.582-165.089-159.886-171.272 3.974-.273 7.939-.605 11.991-.605 94.925 0 171.877 76.953 171.877 171.877 0 61.066-31.945 114.528-79.942 144.983 0 0 55.96-47.053 55.96-144.983z" fill="#F5F6FA"/><path d="M219.79 179.715c0-15.216 11.976-27.883 27.98-31.123-2.577-.523-5.239-.855-7.995-.855-19.869 0-35.974 14.31-35.974 31.978 0 17.667 16.105 31.977 35.974 31.977 2.756 0 5.418-.332 7.995-.854-16.004-3.241-27.98-15.908-27.98-31.123zM336.02 128.025c-9.454-9.446-13.318-20.907-8.643-25.591.547-.542 1.195-.94 1.905-1.261-4.146-1.159-7.752-.882-9.899 1.261-4.676 4.685-.812 16.145 8.643 25.591 8.354 8.361 18.261 12.323 23.679 9.895-4.896-1.374-10.572-4.777-15.685-9.895zM358.129 305.559c-3.864-3.857-2.607-11.383 2.795-16.785 2.006-2.006 4.302-3.436 6.597-4.255-4.106-1.835-10.071-.273-14.591 4.255-5.402 5.402-6.659 12.928-2.795 16.785 2.436 2.428 6.315 2.826 10.211 1.444-.812-.359-1.576-.805-2.217-1.444zM139.847 247.666c0-5.211 3.349-9.606 7.995-11.258-1.257-.445-2.584-.733-3.997-.733-6.621 0-11.992 5.371-11.992 11.991 0 6.628 5.371 11.999 11.992 11.999 1.413 0 2.74-.288 3.997-.733-4.646-1.652-7.995-6.047-7.995-11.266zM227.784 339.597c0-3.466 3.35-6.401 7.995-7.503a17.277 17.277 0 00-3.997-.491c-6.621 0-11.992 3.591-11.992 7.994 0 4.419 5.371 8.01 11.992 8.01 1.413 0 2.74-.195 3.997-.492-4.645-1.101-7.995-4.037-7.995-7.518zM256.007 12.174h35.974v15.989h-35.974zM331.952 44.151h-56.46l15.989-15.988h40.471l-7.994 7.994 7.994 7.994z" fill="#E0E4EC"/><path d="M212.038 491.832s11.991 15.988 43.969 15.988c31.977 0 43.968-15.988 43.968-15.988h-87.937z" fill="#F5F6FA"/><path d="M228.026 491.832h-15.988s11.991 15.988 43.969 15.988c2.833 0 5.465-.164 7.994-.391-25.966-2.357-35.975-15.597-35.975-15.597z" fill="#FEFEFF"/><path d="M283.986 491.832h15.988s-11.991 15.988-43.968 15.988c-2.842 0-5.465-.164-7.995-.391 25.96-2.357 35.975-15.597 35.975-15.597z" fill="#E0E4EC"/><g opacity=".5" fill="#7E8FA4"><path d="M23.204 346.209c-18.752 0-21.188-5.879-22.29-8.533-1.857-4.496-7.524-18.189 65.197-61.159 1.913-1.116 4.356-.492 5.473 1.413a3.997 3.997 0 01-1.405 5.473C4.187 322.391 8.105 334.14 8.3 334.615c.203.469 5.699 11.484 79.365-7.377 50.042-12.819 114.566-35.193 181.683-63.002 67.132-27.812 128.572-57.619 173.009-83.929 65.438-38.746 61.535-50.417 61.34-50.897-.195-.453-5.449-11.016-74.854 6.253-2.154.511-4.309-.773-4.84-2.916a4 4 0 012.912-4.844c76.875-19.123 82.371-5.906 84.166-1.553 1.858 4.481 7.511 18.112-64.648 60.835-44.75 26.497-106.557 56.483-174.024 84.436-67.453 27.949-132.36 50.449-182.762 63.361-33.046 8.463-53.586 11.227-66.444 11.227zM308.203 327.948c-2.201 0-4.035-1.787-4.035-3.997 0-2.209 1.748-3.997 3.957-3.997h.078a3.995 3.995 0 013.998 3.997 3.995 3.995 0 01-3.998 3.997zM156.312 152.07c-2.209 0-4.036-1.788-4.036-3.997 0-2.209 1.749-3.997 3.958-3.997h.078a3.996 3.996 0 013.998 3.997 3.996 3.996 0 01-3.998 3.997z"/><path d="M364.164 200.04c-2.202 0-4.037-1.788-4.037-3.997 0-2.209 1.749-3.997 3.959-3.997h.078a3.995 3.995 0 013.997 3.997 3.995 3.995 0 01-3.997 3.997z"/><path fill-rule="evenodd" clip-rule="evenodd" d="M164.072 391.902h183.869a3.994 3.994 0 003.997-3.996v-8.658c50.097-32.68 79.943-87.555 79.943-147.231 0-96.979-78.896-175.875-175.874-175.875S80.132 135.039 80.132 232.017c0 59.676 29.838 114.551 79.943 147.231v8.658a3.994 3.994 0 003.997 3.996zm179.871-7.994H168.069v-6.838a3.998 3.998 0 00-1.858-3.373c-48.894-31.056-78.084-84.026-78.084-141.68 0-92.57 75.305-167.88 167.88-167.88 92.567 0 167.88 75.309 167.88 167.88 0 57.654-29.198 110.623-78.093 141.68a3.991 3.991 0 00-1.851 3.373v6.838z"/><path fill-rule="evenodd" clip-rule="evenodd" d="M188.047 495.829h135.911a3.995 3.995 0 002.826-1.171l23.983-23.983a3.994 3.994 0 001.17-2.826v-79.942a3.994 3.994 0 00-3.996-3.998H164.072a3.995 3.995 0 00-3.997 3.998v79.942c0 1.061.421 2.077 1.171 2.826l23.975 23.983a3.996 3.996 0 002.826 1.171zm134.256-7.995H189.702l-21.633-21.641v-74.291h175.875v74.291l-21.641 21.641z"/><path d="M156.07 423.88a4 4 0 01-3.981-3.677 3.998 3.998 0 013.669-4.302l199.857-15.988c2.248-.148 4.122 1.468 4.302 3.661a3.993 3.993 0 01-3.661 4.302l-199.858 15.988a4.473 4.473 0 01-.328.016zM156.07 447.863a4 4 0 01-3.981-3.678 3.997 3.997 0 013.669-4.301l199.857-15.989c2.248-.18 4.122 1.46 4.302 3.661a3.993 3.993 0 01-3.661 4.303l-199.858 15.988a4.473 4.473 0 01-.328.016zM156.07 471.846a4 4 0 01-3.981-3.677 3.997 3.997 0 013.669-4.302l199.857-15.988c2.248-.125 4.122 1.46 4.302 3.661a3.992 3.992 0 01-3.661 4.302L156.398 471.83a4.473 4.473 0 01-.328.016zM256.007 511.817c-33.594 0-46.631-16.871-47.17-17.589a3.993 3.993 0 01.804-5.598 3.996 3.996 0 015.574.78c.484.625 11.507 14.412 40.792 14.412 29.314 0 40.33-13.826 40.783-14.412 1.343-1.741 3.856-2.076 5.598-.749a3.979 3.979 0 01.78 5.566c-.539.719-13.576 17.59-47.161 17.59zM256.007 64.137a3.995 3.995 0 01-3.998-3.997V4.18a3.995 3.995 0 013.998-3.997 3.995 3.995 0 013.997 3.997v55.96a3.995 3.995 0 01-3.997 3.997z"/><path d="M291.98 16.171h-35.974a3.995 3.995 0 01-3.998-3.997 3.995 3.995 0 013.998-3.997h35.974a3.995 3.995 0 013.998 3.997 3.995 3.995 0 01-3.998 3.997zM291.98 32.16h-35.974a3.995 3.995 0 01-3.998-3.997 3.995 3.995 0 013.998-3.997h35.974a3.995 3.995 0 013.998 3.997 3.995 3.995 0 01-3.998 3.997z"/><path d="M291.98 32.16a3.995 3.995 0 01-3.997-3.997V12.174a3.995 3.995 0 013.997-3.997 3.995 3.995 0 013.998 3.997v15.989a3.995 3.995 0 01-3.998 3.997z"/><path d="M275.992 48.148a3.989 3.989 0 01-2.826-1.171 3.994 3.994 0 010-5.652l15.988-15.989a3.996 3.996 0 115.652 5.652l-15.988 15.989a3.983 3.983 0 01-2.826 1.171z"/><path d="M331.952 48.148h-55.96a3.995 3.995 0 01-3.997-3.997 3.995 3.995 0 013.997-3.997h55.96a3.994 3.994 0 013.997 3.997 3.994 3.994 0 01-3.997 3.997zM331.952 32.16h-31.978a3.994 3.994 0 01-3.996-3.997 3.994 3.994 0 013.996-3.997h31.978a3.994 3.994 0 013.997 3.997 3.994 3.994 0 01-3.997 3.997z"/><path d="M331.952 48.148a3.989 3.989 0 01-2.826-1.17l-7.994-7.996a3.994 3.994 0 010-5.652l7.994-7.995a3.996 3.996 0 115.652 5.652l-5.168 5.168 5.168 5.168a3.994 3.994 0 010 5.652 3.975 3.975 0 01-2.826 1.173z"/><path fill-rule="evenodd" clip-rule="evenodd" d="M200.046 180.054c0 19.837 17.933 35.974 39.972 35.974s39.971-16.137 39.971-35.974c0-19.837-17.932-35.974-39.971-35.974-22.039 0-39.972 16.137-39.972 35.974zm7.995 0c0-15.426 14.341-27.98 31.977-27.98 17.628 0 31.977 12.554 31.977 27.98s-14.349 27.98-31.977 27.98c-17.636 0-31.977-12.554-31.977-27.98zM325.441 131.191c7.269 7.276 16.035 11.796 22.874 11.796 3.405 0 6.292-1.093 8.362-3.165 6.44-6.448 2.732-19.88-8.626-31.239-10.884-10.895-25.014-14.873-31.26-8.63-6.441 6.447-2.717 19.879 8.65 31.238zm-2.998-25.587c.68-.68 1.851-.82 2.709-.82 3.88 0 10.711 2.923 17.246 9.451 8.579 8.584 10.875 17.687 8.626 19.939-.679.679-1.851.82-2.709.82-3.872 0-10.696-2.924-17.222-9.455-8.595-8.584-10.89-17.687-8.65-19.935zM347.551 308.729c2.201 2.201 5.293 3.411 8.713 3.411 4.777 0 9.781-2.257 13.747-6.206 7.049-7.082 8.275-16.949 2.771-22.453-5.293-5.293-15.683-3.966-22.444 2.803-7.065 7.081-8.291 16.941-2.787 22.445zm8.447-16.794c2.42-2.42 5.442-3.873 8.088-3.873.905 0 2.162.188 3.045 1.071 1.975 1.974 1.311 7.041-2.779 11.148-2.429 2.42-5.449 3.864-8.088 3.864-.915 0-2.179-.187-3.061-1.069-1.976-1.976-1.312-7.035 2.795-11.141zM128.097 248.006c0 8.821 7.167 15.996 15.989 15.996 8.814 0 15.989-7.175 15.989-15.996 0-8.819-7.175-15.989-15.989-15.989-8.822 0-15.989 7.171-15.989 15.989zm7.994 0c0-4.407 3.584-7.994 7.995-7.994 4.403 0 7.995 3.587 7.995 7.994 0 4.411-3.592 8.002-7.995 8.002-4.411 0-7.995-3.591-7.995-8.002zM216.035 339.939c0 6.73 7.018 12 15.988 12 8.963 0 15.989-5.269 15.989-12 0-6.72-7.026-11.991-15.989-11.991-8.969 0-15.988 5.27-15.988 11.991zm7.994 0c0-1.592 3.185-3.996 7.994-3.996 4.802 0 7.995 2.405 7.995 3.996 0 1.633-3.115 4.006-7.995 4.006-4.879 0-7.994-2.373-7.994-4.006z"/></g></g></svg>